<?xml version="1.0" encoding="utf-8"?>
<!-- Generator: Adobe Illustrator 25.0.1, SVG Export Plug-In . SVG Version: 6.00 Build 0)  -->
<svg version="1.0" id="katman_1" xmlns="http://www.w3.org/2000/svg" xmlns:xlink="http://www.w3.org/1999/xlink" x="0px" y="0px"
	 viewBox="0 0 560 400"   style="enable-background:new 0 0 560 400;" xml:space="preserve">
<style type="text/css">
	.st0{fill-rule:evenodd;clip-rule:evenodd;stroke:#000000;stroke-width:1.0403;stroke-miterlimit:4.1614;}
	.st1{fill-rule:evenodd;clip-rule:evenodd;fill:#FFCC00;stroke:#FFCC00;stroke-width:0.697;stroke-miterlimit:4.1614;}
	.st2{fill-rule:evenodd;clip-rule:evenodd;fill:#37ABC8;stroke:#37ABC8;stroke-width:0.697;stroke-miterlimit:4.1614;}
	.st3{fill-rule:evenodd;clip-rule:evenodd;stroke:#000000;stroke-width:0.697;stroke-miterlimit:4.1614;}
</style>
<g transform="matrix(1.04035 0 0 1.04035 111.188 -366.984)">
	<circle class="st0" cx="162.3" cy="545" r="144.2"/>
	<g>
		<path class="st1" d="M55.5,548.4l19.9-50.3l49.6,39.2l-3.2-93.2l-4.9,7.2l-1.5-6.6l-4.4,6.4l-2-14l-6.7,53.7l-35.7-26.8l-8.7,9.1
			L55.5,548.4z"/>
		<path class="st1" d="M209.9,446.6l-20.5,31.3l14.6,33.6l27.1,34.8l22.2,7.7l25.7-33.8l-5.9-27.8l-26.1-36.7L209.9,446.6z"/>
		<path class="st1" d="M135.4,546.7l50.5-38l-9.6,1.3l5.7-4.9l-7.7,1.7l10.3-7.6l-34.5,6.2l-1.2-11.6l46.6-34.2l-48.1,3.5l43.2-28.4
			l-15,1.7l12.6-10.1l-7.1-0.3l10.3-7.4l-59.1,19.5L135.4,546.7z"/>
		<path class="st2" d="M123.8,599.6l41.6,55.3l-4.5-10.4l6.6,5.2l-3.2-10.3l7.4,1.8l-24.9-47.9l44.9,1.3l-23.9-40.4l37,12.5
			l-6.6-7.2l10.9,2.9l-8.7-11.3l4.9,0.5l-31-25.2L123.8,599.6z"/>
		<path class="st3" d="M229.3,523.7l6.6,2.2h11.3l5.4-3.7l4.2-5.9l4-13.8l1.9,11.4l-1.7,7.4l-5.4,6.2l-6.2,3.7l-11.6-0.7
			L229.3,523.7z"/>
		<path class="st2" d="M187.7,639.4l14,13.5l26.6-6.7l40.7-38.4l1.5-47.1l-47.9,1l-34.7,45.1L187.7,639.4z"/>
		<path class="st2" d="M114.7,543c-5-3.3-13.6-8.4-22.4-6.9c-40.9,6.9-38.1,57.2-19.5,84.8c10.3,15.3,40.7,35.2,57.9,39.2l-14-80.9
			l-27.1,8.7l7.4,0.2l-9.4,7.7h9.6l-8.6,6.9h16.2l5.6,22.2l-0.2-0.3c-8.6-2.4-18-10.3-23.7-16.1c-16.7-16.8-18.3-49.3,10.1-50.7
			c13.1,3.6,23.2,13.3,34,18.5L114.7,543z"/>
		<path class="st3" d="M216.2,617.4l6.4,2.4l7.7-3.4l6.7,12.8l-15.1,6.4l-6.7-0.3l-3-5l-8.4,1l-3.7-11.8l3.4-6.7l8.7-3.4
			L216.2,617.4z"/>
		<path class="st3" d="M229,589.8l7.3-1.4l3.1-7.9l-3-6.3l-9.4,1.7l-3.7,7.9L229,589.8z"/>
		<path class="st3" d="M211,492.2l4.5,2.9l5-3.2l-1.4-4.2l-4.5-1.2l-3.3,2.4L211,492.2z"/>
		<path class="st3" d="M230.1,478.8l3.8-5.7h4.6l3.8,6.2l-2.6,5.1l-6.1-0.1L230.1,478.8z"/>
		<path class="st3" d="M246.5,593.8l3.7-1.8l5.1,1.2l-0.1,4.5l-3.1,3.9l-5.2-3L246.5,593.8z"/>
	</g>
</g>
</svg>
